<?xml version="1.0" encoding="utf-8"?>
<svg version="1.1" xmlns:xlink="http://www.w3.org/1999/xlink" width="140px" height="139px" xmlns="http://www.w3.org/2000/svg">
  <g transform="matrix(1 0 0 1 -1057 -442 )">
    <path d="M 70 17.375  C 70 17.375  70 0  70 0  C 95.0127409971633 0  118.113851627482 13.2450961538461  130.620222126064 34.75  C 143.126592624645 56.2549038461539  143.126592624645 82.7450961538461  130.620222126064 104.25  C 118.113851627482 125.754903846154  95.0127409971633 139  70 139  C 44.9872590028367 139  21.8861483725179 125.754903846154  9.37977787393625 104.25  C -3.12659262464542 82.7450961538461  -3.12659262464542 56.2549038461539  9.37977787393625 34.75  C 21.8861483725179 13.2450961538461  44.9872590028367 0  70 0  C 70 0  70 17.375  70 17.375  C 51.2471753449685 17.375  33.9213423722294 27.3054807692308  24.5381989518727 43.4375  C 15.1550555315159 59.5695192307692  15.1550555315159 79.4304807692308  24.5381989518727 95.5625  C 33.9213423722294 111.694519230769  51.2471753449685 121.625  70 121.625  C 88.7528246550315 121.625  106.078657627771 111.694519230769  115.461801048127 95.5625  C 124.844944468484 79.4304807692308  124.844944468484 59.5695192307692  115.461801048127 43.4375  C 106.078657627771 27.3054807692308  88.7528246550315 17.375  70 17.375  Z " fill-rule="nonzero" fill="#455a64" stroke="none" fill-opacity="0.00392156862745098" transform="matrix(1 0 0 1 1057 442 )" />
  </g>
</svg>