<?xml version="1.0" encoding="utf-8"?>
<svg version="1.1" xmlns:xlink="http://www.w3.org/1999/xlink" width="96px" height="96px" xmlns="http://www.w3.org/2000/svg">
  <g transform="matrix(1 0 0 1 -406 -144 )">
    <path d="M 48 12  C 48 12  48 0  48 0  C 65.1515938266263 0  80.992355401702 9.1476923076923  89.5681523150151 24  C 98.1439492283283 38.8523076923077  98.1439492283283 57.1476923076923  89.5681523150151 72  C 80.992355401702 86.8523076923077  65.1515938266263 96  48 96  C 30.8484061733737 96  15.007644598298 86.8523076923077  6.43184768498485 72  C -2.14394922832829 57.1476923076923  -2.14394922832829 38.8523076923077  6.43184768498485 24  C 15.007644598298 9.1476923076923  30.8484061733737 0  48 0  C 48 0  48 12  48 12  C 35.1409202365498 12  23.260349055243 18.8584615384615  16.8261935669984 30  C 10.3920380787538 41.1415384615385  10.3920380787538 54.8584615384615  16.8261935669984 66  C 23.260349055243 77.1415384615385  35.1409202365498 84  48 84  C 60.8590797634502 84  72.739650944757 77.1415384615385  79.1738064330016 66  C 85.6079619212462 54.8584615384615  85.6079619212462 41.1415384615385  79.1738064330016 30  C 72.739650944757 18.8584615384615  60.8590797634502 12  48 12  Z " fill-rule="nonzero" fill="#455a64" stroke="none" fill-opacity="0.00392156862745098" transform="matrix(1 0 0 1 406 144 )" />
  </g>
</svg>