<?xml version="1.0" encoding="utf-8"?>
<svg version="1.1" xmlns:xlink="http://www.w3.org/1999/xlink" width="48px" height="40px" xmlns="http://www.w3.org/2000/svg">
  <g transform="matrix(1 0 0 1 -817 -231 )">
    <path d="M 2.23255813953488 40  C 1.9972845683122 40  1.78098586230467 39.9308880698079  1.60270608727939 39.8115816594744  C 1.45635001857184 39.8804948044007  1.29158174015377 39.9188640973622  1.11627906976744 39.9188640973622  C 0.491162790697228 39.9188640973622  0 39.4309668695055  0 38.8100067613243  L 0 1.10885733603785  C 0 0.487897227856643  0.491162790697228 0  1.11627906976744 0  C 1.74139534883766 0  2.23255813953488 0.487897227856643  3 1.10885733603785  L 3 37  L 46.8837209302326 37  C 47.5088372093028 37.7822853279243  48 38.2701825557809  48 38.8911426639622  C 48 39.5121027721434  47.5088372093028 40  46.8837209302326 40  L 2.23255813953488 40  Z " fill-rule="nonzero" fill="#83b4e5" stroke="none" transform="matrix(1 0 0 1 817 231 )" />
  </g>
</svg>