<?xml version="1.0" encoding="utf-8"?>
<svg version="1.1" xmlns:xlink="http://www.w3.org/1999/xlink" width="40px" height="35px" xmlns="http://www.w3.org/2000/svg">
  <g transform="matrix(1 0 0 1 -824 -231 )">
    <path d="M 2.22222222222222 14.6774193548387  C 3.46666666666655 14.6774193548387  4.44444444444444 15.6709677419355  5 16.9354838709677  L 5 32.741935483871  C 4.44444444444444 34.0064516129032  3.46666666666655 35  2.22222222222222 35  C 0.977777777777899 35  0 34.0064516129032  0 32.741935483871  L 0 16.9354838709677  C 0 15.6709677419355  0.977777777777899 14.6774193548387  2.22222222222222 14.6774193548387  Z M 11.1111111111111 23.7096774193548  C 12.3555555555554 23.7096774193548  13.3333333333333 24.7032258064516  13.3333333333333 25.9677419354839  L 13.3333333333333 32.741935483871  C 13.3333333333333 34.0064516129032  12.3555555555554 35  11.1111111111111 35  C 9.86666666666679 35  8.88888888888889 34.0064516129032  8.88888888888889 32.741935483871  L 8.88888888888889 25.9677419354839  C 8.88888888888889 24.7032258064516  9.86666666666679 23.7096774193548  11.1111111111111 23.7096774193548  Z M 22 2.25806451612903  L 22 32.741935483871  C 22.2222222222222 34.0064516129032  21.2444444444443 35  20 35  C 18.7555555555557 35  17.7777777777778 34.0064516129032  18 32.741935483871  L 18 2.25806451612903  C 17.7777777777778 0.993548387096769  18.7555555555557 0  20 0  C 21.2444444444443 0  22.2222222222222 0.993548387096769  22 2.25806451612903  Z M 31 32.741935483871  C 31.1111111111111 34.0064516129032  30.1333333333332 35  28.8888888888889 35  C 27.6444444444446 35  26.6666666666667 34.0064516129032  26 32.741935483871  L 26 9.03225806451613  C 26.6666666666667 7.76774193548387  27.6444444444446 6.7741935483871  28.8888888888889 6.7741935483871  C 30.1333333333332 6.7741935483871  31.1111111111111 7.76774193548387  31 9.03225806451613  L 31 32.741935483871  Z M 37.7777777777778 35  C 36.5333333333335 35  35.5555555555556 34.0064516129032  35 32.741935483871  L 35 22.5806451612903  C 35.5555555555556 21.3161290322581  36.5333333333335 20.3225806451613  37.7777777777778 20.3225806451613  C 39.0222222222221 20.3225806451613  40 21.3161290322581  40 22.5806451612903  L 40 32.741935483871  C 40 34.0064516129032  39.0222222222221 35  37.7777777777778 35  Z " fill-rule="nonzero" fill="#b7d6f6" stroke="none" transform="matrix(1 0 0 1 824 231 )" />
  </g>
</svg>