<?xml version="1.0" encoding="utf-8"?>
<svg version="1.1" xmlns:xlink="http://www.w3.org/1999/xlink" width="96px" height="96px" xmlns="http://www.w3.org/2000/svg">
  <g transform="matrix(1 0 0 1 -406 -144 )">
    <path d="M 47.9985082199055 12  C 47.9985082199055 12  47.9985082199055 0  47.9985082199055 0  C 65.1506350966622 0  80.9918889828379 9.1476923076923  89.5679524212162 24  C 98.1440158595945 38.8523076923077  98.1440158595945 57.1476923076923  89.5679524212162 72  C 80.9918889828379 86.8523076923077  65.1506350966622 96  47.9985082199055 96  C 30.8463813431489 96  15.0051274569732 86.8523076923077  6.42906401859485 72  C -0.374551432519069 60.2215384615385  -1.85159142190608 46.1076923076923  2.34874104791323 33.1661538461538  C 2.34874104791323 33.1661538461538  13.7588749659279 36.8769230769231  13.7588749659279 36.8769230769231  C 9.78009849451663 49.1076923076923  12.641863473954 62.5384615384615  21.2456214121333 72.0923076923077  C 29.8493793503126 81.6461538461539  42.9027202565204 85.8923076923077  55.485254666111 83.2153846153846  C 68.0677890757016 80.5384615384615  78.259365002472 71.3538461538461  82.2381414738832 59.1230769230769  C 86.2169179452945 46.8923076923077  83.3551529658571 33.4615384615385  74.7513950276778 23.9076923076923  C 67.9200850767629 16.3292307692308  58.1993156466096 12  47.9985082199055 12  Z " fill-rule="nonzero" fill="#4b97fa" stroke="none" transform="matrix(1 0 0 1 406 144 )" />
  </g>
</svg>