<?xml version="1.0" encoding="utf-8"?>
<svg version="1.1" xmlns:xlink="http://www.w3.org/1999/xlink" width="70px" height="120px" xmlns="http://www.w3.org/2000/svg">
  <g transform="matrix(1 0 0 1 -1127 -442 )">
    <path d="M 0 17.3102529960053  C 0 17.3102529960053  0 0  0 0  C 25.0127409971633 0  48.1138516274821 13.1957390146471  60.6202221260638 34.6205059920106  C 73.1265926246454 56.0452729693742  73.1265926246454 82.4367509986684  60.6202221260638 103.861517976032  C 57.1200538487427 109.853528628495  52.7448435020914 115.299600532623  47.6157507572479 120  C 47.6157507572479 120  35.7151786143565 107.310252996005  35.7151786143565 107.310252996005  C 49.4600701956825 94.6870838881491  55.3565075244002 75.7656458055925  51.183229962979 57.6830892143808  C 47.0099524015578 39.6005326231691  33.3996826770518 25.08655126498  15.4815135343045 19.6138482023968  C 10.4735804605991 18.0825565912117  5.25025241598154 17.3102529960053  0 17.3102529960053  Z " fill-rule="nonzero" fill="#4b97fa" stroke="none" transform="matrix(1 0 0 1 1127 442 )" />
  </g>
</svg>