<?xml version="1.0" encoding="utf-8"?>
<svg version="1.1" xmlns:xlink="http://www.w3.org/1999/xlink" width="24px" height="25px" xmlns="http://www.w3.org/2000/svg">
  <defs>
    <linearGradient gradientUnits="userSpaceOnUse" x1="0" y1="25" x2="24" y2="0" id="LinearGradient1">
      <stop id="Stop2" stop-color="#85caf3" offset="0" />
      <stop id="Stop3" stop-color="#3c95eb" offset="1" />
    </linearGradient>
  </defs>
  <g transform="matrix(1 0 0 1 -52 -84 )">
    <path d="M 24 15.2777777777778  C 24 14.5138888888889  23.4 13.8888888888889  22.6666666666667 13.8888888888889  L 1.33333333333333 13.8888888888889  C 0.6 13.8888888888889  0 14.5138888888889  0 15.2777777777778  L 0 23.6111111111111  C 0 24.375  0.6 25  1.33333333333333 25  L 22.6666666666667 25  C 23.4 25  24 24.375  24 23.6111111111111  L 24 15.2777777777778  Z M 8 19.4444444444444  C 8 20.9722222222222  6.8 22.2222222222222  5.33333333333333 22.2222222222222  C 3.86666666666667 22.2222222222222  2.66666666666667 20.9722222222222  2.66666666666667 19.4444444444444  C 2.66666666666667 17.9166666666667  3.86666666666667 16.6666666666667  5.33333333333333 16.6666666666667  C 6.8 16.6666666666667  8 17.9166666666667  8 19.4444444444444  Z M 24 1.38888888888889  C 24 0.625  23.4 0  22.6666666666667 0  L 1.33333333333333 0  C 0.6 0  0 0.625  0 1.38888888888889  L 0 9.72222222222222  C 0 10.4861111111111  0.6 11.1111111111111  1.33333333333333 11.1111111111111  L 22.6666666666667 11.1111111111111  C 23.4 11.1111111111111  24 10.4861111111111  24 9.72222222222222  L 24 1.38888888888889  Z M 8 5.55555555555556  C 8 7.08333333333333  6.8 8.33333333333333  5.33333333333333 8.33333333333333  C 3.86666666666667 8.33333333333333  2.66666666666667 7.08333333333333  2.66666666666667 5.55555555555556  C 2.66666666666667 4.02777777777778  3.86666666666667 2.77777777777778  5.33333333333333 2.77777777777778  C 6.8 2.77777777777778  8 4.02777777777778  8 5.55555555555556  Z " fill-rule="nonzero" fill="url(#LinearGradient1)" stroke="none" transform="matrix(1 0 0 1 52 84 )" />
  </g>
</svg>