<?xml version="1.0" encoding="utf-8"?>
<svg version="1.1" xmlns:xlink="http://www.w3.org/1999/xlink" width="13px" height="13px" xmlns="http://www.w3.org/2000/svg">
  <g transform="matrix(1 0 0 1 -377 -335 )">
    <path d="M 5.85 5.85  L 5.85 9.75  L 7.15 9.75  L 7.15 5.85  L 5.85 5.85  Z M 13 6.5  C 13 2.912  10.088 0  6.5 0  C 2.912 0  0 2.912  0 6.5  C 0 10.088  2.912 13  6.5 13  C 10.088 13  13 10.088  13 6.5  Z M 11.7 6.5  C 11.7 9.3665  9.3665 11.7  6.5 11.7  C 3.6335 11.7  1.3 9.3665  1.3 6.5  C 1.3 3.6335  3.6335 1.3  6.5 1.3  C 9.3665 1.3  11.7 3.6335  11.7 6.5  Z M 5.85 3.25  L 5.85 4.55  L 7.15 4.55  L 7.15 3.25  L 5.85 3.25  Z " fill-rule="nonzero" fill="#bfbfbf" stroke="none" transform="matrix(1 0 0 1 377 335 )" />
  </g>
</svg>