<?xml version="1.0" encoding="utf-8"?>
<svg version="1.1" xmlns:xlink="http://www.w3.org/1999/xlink" width="15px" height="12px" xmlns="http://www.w3.org/2000/svg">
  <g transform="matrix(1 0 0 1 -1 -2 )">
    <path d="M 15 1.33333333333333  C 15 0.6  14.3863636363636 0  13.6363636363636 0  L 1.36363636363636 0  C 0.613636363636364 0  0 0.6  0 1.33333333333333  L 0 9.33333333333333  C 0 10.0666666666667  0.613636363636364 10.6666666666667  1.36363636363636 10.6666666666667  L 4.77272727272727 10.6666666666667  L 4.77272727272727 12  L 10.2272727272727 12  L 10.2272727272727 10.6666666666667  L 13.6363636363636 10.6666666666667  C 14.3863636363636 10.6666666666667  14.9931818181818 10.0666666666667  14.9931818181818 9.33333333333333  L 15 1.33333333333333  Z M 13.6363636363636 1.33333333333333  L 13.6363636363636 9.33333333333333  L 1.36363636363636 9.33333333333333  L 1.36363636363636 1.33333333333333  L 13.6363636363636 1.33333333333333  Z M 12.2727272727273 4.66666666666667  L 12.2727272727273 3.33333333333333  L 4.77272727272727 3.33333333333333  L 4.77272727272727 4.66666666666667  L 12.2727272727273 4.66666666666667  Z M 12.2727272727273 7.33333333333333  L 12.2727272727273 6  L 4.77272727272727 6  L 4.77272727272727 7.33333333333333  L 12.2727272727273 7.33333333333333  Z M 4.09090909090909 4.66666666666667  L 4.09090909090909 3.33333333333333  L 2.72727272727273 3.33333333333333  L 2.72727272727273 4.66666666666667  L 4.09090909090909 4.66666666666667  Z M 4.09090909090909 7.33333333333333  L 4.09090909090909 6  L 2.72727272727273 6  L 2.72727272727273 7.33333333333333  L 4.09090909090909 7.33333333333333  Z " fill-rule="nonzero" fill="#ffffff" stroke="none" transform="matrix(1 0 0 1 1 2 )" />
  </g>
</svg>