<?xml version="1.0" encoding="utf-8"?>
<svg version="1.1" xmlns:xlink="http://www.w3.org/1999/xlink" width="10px" height="9px" xmlns="http://www.w3.org/2000/svg">
  <g transform="matrix(1 0 0 1 -422 -111 )">
    <path d="M 3.07692307692308 3.75  L 3.07692307692308 5.25  L 10 5.25  L 10 3.75  L 3.07692307692308 3.75  Z M 10 0  L 3.07692307692308 0  L 3.07692307692308 1.5  L 10 1.5  L 10 0  Z M 3.07692307692308 7.5  L 3.07692307692308 9  L 10 9  L 10 7.5  L 3.07692307692308 7.5  Z M 0 3.75  L 0 5.25  L 1.53846153846154 5.25  L 1.53846153846154 3.75  L 0 3.75  Z M 1.53846153846154 0  L 0 0  L 0 1.5  L 1.53846153846154 1.5  L 1.53846153846154 0  Z M 0 7.5  L 0 9  L 1.53846153846154 9  L 1.53846153846154 7.5  L 0 7.5  Z " fill-rule="nonzero" fill="#027bc2" stroke="none" transform="matrix(1 0 0 1 422 111 )" />
  </g>
</svg>