<?xml version="1.0" encoding="utf-8"?>
<svg version="1.1" xmlns:xlink="http://www.w3.org/1999/xlink" width="25px" height="30px" xmlns="http://www.w3.org/2000/svg">
  <defs>
    <linearGradient gradientUnits="userSpaceOnUse" x1="12.5" y1="0" x2="12.5" y2="29.7" id="LinearGradient11">
      <stop id="Stop12" stop-color="#f17663" offset="0" />
      <stop id="Stop13" stop-color="#fea47d" offset="1" />
    </linearGradient>
  </defs>
  <g transform="matrix(1 0 0 1 -900 -82 )">
    <path d="M 25 8.57142857142857  C 20.1666666666667 8.57142857142857  15.7777777777778 10.5  12.5 13.6428571428571  C 9.22222222222222 10.5  4.83333333333333 8.57142857142857  0 8.57142857142857  L 0 24.2857142857143  C 4.83333333333333 24.2857142857143  9.22222222222222 26.2142857142857  12.5 29.3571428571429  C 15.7777777777778 26.2285714285714  20.1666666666667 24.2857142857143  25 24.2857142857143  L 25 8.57142857142857  Z M 8.33333333333333 4.28571428571429  C 8.33333333333333 6.65714285714286  10.1944444444444 8.57142857142857  12.5 8.57142857142857  C 14.8055555555556 8.57142857142857  16.6666666666667 6.65714285714286  16.6666666666667 4.28571428571429  C 16.6666666666667 1.91428571428571  14.8055555555556 0  12.5 0  C 10.1944444444444 0  8.33333333333333 1.91428571428571  8.33333333333333 4.28571428571429  Z " fill-rule="nonzero" fill="url(#LinearGradient11)" stroke="none" transform="matrix(1 0 0 1 900 82 )" />
  </g>
</svg>