<?xml version="1.0" encoding="utf-8"?>
<svg version="1.1" xmlns:xlink="http://www.w3.org/1999/xlink" width="16px" height="16px" xmlns="http://www.w3.org/2000/svg">
  <g transform="matrix(1 0 0 1 -80 -216 )">
    <path d="M 0.59555555555562 8.00444444444434  C 0.59555555555562 12.0941511111111  3.914737777778 15.4133333333333  8.00444444444535 15.4133333333333  C 12.0941511111111 15.4133333333333  15.4133333333335 12.0941511111111  15.4133333333335 8.00444444444434  C 15.4133333333335 3.9147377777777  12.0941511111111 0.595555555555519  8.00444444444535 0.595555555555519  C 3.914737777778 0.595555555555519  0.59555555555562 3.9147377777777  0.59555555555562 8.00444444444434  Z M 7.26355555555589 11.7088888888889  L 7.26355555555589 10.2271111111111  L 8.74533333333319 10.2271111111111  L 8.74533333333319 11.7088888888889  L 7.26355555555589 11.7088888888889  Z M 7.26355555555589 4.29999999999998  L 8.74533333333319 4.29999999999998  L 8.74533333333319 8.74533333333329  L 7.26355555555589 8.74533333333329  L 7.26355555555589 4.29999999999998  Z " fill-rule="nonzero" fill="#029af2" stroke="none" transform="matrix(1 0 0 1 80 216 )" />
  </g>
</svg>