<?xml version="1.0" encoding="utf-8"?>
<svg version="1.1" xmlns:xlink="http://www.w3.org/1999/xlink" width="14px" height="14px" xmlns="http://www.w3.org/2000/svg">
  <g transform="matrix(1 0 0 1 -17 -13 )">
    <path d="M 1.55555555555556 14  C 1.55555555555556 14  12.4444444444444 14  12.4444444444444 14  C 13.3 14  14 13.3  14 12.4444444444444  C 14 12.4444444444444  14 1.55555555555556  14 1.55555555555556  C 14 0.699999999999999  13.3 0  12.4444444444444 0  C 12.4444444444444 0  1.55555555555556 0  1.55555555555556 0  C 0.699999999999999 0  0 0.699999999999999  0 1.55555555555556  C 0 1.55555555555556  0 12.4444444444444  0 12.4444444444444  C 0 13.3  0.699999999999999 14  1.55555555555556 14  Z M 4.66666666666667 10.8888888888889  L 3.11111111111111 10.8888888888889  L 3.11111111111111 5.44444444444445  L 4.66666666666667 5.44444444444445  L 4.66666666666667 10.8888888888889  Z M 6.22222222222222 10.8888888888889  L 6.22222222222222 3.11111111111111  L 7.77777777777778 3.11111111111111  L 7.77777777777778 10.8888888888889  L 6.22222222222222 10.8888888888889  Z M 9.33333333333334 7.77777777777778  L 10.8888888888889 7.77777777777778  L 10.8888888888889 10.8888888888889  L 9.33333333333334 10.8888888888889  L 9.33333333333334 7.77777777777778  Z " fill-rule="nonzero" fill="#ffffff" stroke="none" transform="matrix(1 0 0 1 17 13 )" />
  </g>
</svg>