<?xml version="1.0" encoding="utf-8"?>
<svg version="1.1" xmlns:xlink="http://www.w3.org/1999/xlink" width="14px" height="14px" xmlns="http://www.w3.org/2000/svg">
  <g transform="matrix(1 0 0 1 -17 -53 )">
    <path d="M 1.88322982681191 0.000255655560152945  C 1.88322982681191 0.000255655560152945  4.1128415000785 0.000255655560152945  4.1128415000785 0.000255655560152945  C 4.61431263151211 0.00120529657665713  5.09486124555075 0.198094657081342  5.44877165715632 0.547610130470375  C 5.80268206876178 0.897125603859394  6.00096363496802 1.37063655941976  5.99999647843153 1.86397552360599  C 5.99999647843153 1.86397552360599  5.99999647843153 4.13986420862349  5.99999647843153 4.13986420862349  C 5.99999841419585 5.16579079594349  5.15567745100039 5.9980232628393  4.1128415000785 6  C 4.1128415000785 6  1.88322982681191 6  1.88322982681191 6  C 1.3621456585784 5.99404171783783  0.86628123082021 5.77837805350445  0.511104562116643 5.40322889494934  C 0.15592789341319 5.02807973639422  -0.0275625629343365 4.52618665899985  0.00336116111668458 4.01442152519732  C 0.00336116111668458 4.01442152519732  0.00336116111668458 1.74570099351845  0.00336116111668458 1.74570099351845  C 0.0447425052361512 0.758446593363047  0.878987107240659 -0.016143875565831  1.88322982681191 0.000255655560152945  Z M 12.111380145276 0  C 12.6122732737864 0  13.0926511238132 0.196363890378052  13.4468360516326 0.545893856650238  C 13.801020979452 0.89542382292241  13.9999999999967 1.36948819023345  13.9999999999967 1.86379820899138  C 13.9999999999967 1.86379820899138  13.9999999999967 4.13978256035585  13.9999999999967 4.13978256035585  C 14.0000009291591 4.63376361829086  13.8009060741686 5.10746031239808  13.4466163553775 5.45642132051654  C 13.0923266365864 5.80538232863499  12.6119390027755 6.00094833596903  12.111380145276 5.99999654202225  C 12.111380145276 5.99999654202225  9.88861985472022 5.99999654202225  9.88861985472022 5.99999654202225  C 9.3880609972207 6.00094833596903  8.90767336340981 5.80538232863499  8.5533836446187 5.45642132051654  C 8.19909392582759 5.10746031239808  7.99999907083712 4.63376361829086  7.99999999999953 4.13978256035585  C 7.99999999999953 4.13978256035585  7.99999999999953 1.86379820899138  7.99999999999953 1.86379820899138  C 7.99999999999953 0.834450881403498  8.84556391073037 0  9.88861985472022 0  C 9.88861985472022 0  12.111380145276 0  12.111380145276 0  Z M 4.11138014527978 8.00000345797775  C 4.6119390027793 7.99905166403097  5.09232663659019 8.19461767136501  5.4466163553813 8.54357867948346  C 5.80090607417241 8.89253968760192  6.00000092916288 9.36623638170914  6.00000000000047 9.86021743964415  C 6.00000000000047 9.86021743964415  6.00000000000047 12.1362017910086  6.00000000000047 12.1362017910086  C 6.00000000000047 13.1655491185965  5.15443608926963 14  4.11138014527978 14  C 4.11138014527978 14  1.88861985472399 14  1.88861985472399 14  C 0.845563910734142 14  0 13.1655491185965  0 12.1362017910086  C 0 12.1362017910086  0 9.86021743964415  0 9.86021743964415  C 0 9.36623638170914  0.199093925831355 8.89253968760192  0.553383644622466 8.54357867948346  C 0.907673363413578 8.19461767136501  1.38806099722447 7.99905166403097  1.88861985472399 8.00000345797775  C 1.88861985472399 8.00000345797775  4.11138014527978 8.00000345797775  4.11138014527978 8.00000345797775  Z M 13.9999999999967 9.86021743964415  C 13.9999999999967 9.86021743964415  13.9999999999967 12.1362017910086  13.9999999999967 12.1362017910086  C 13.9999999999967 13.1655491185965  13.1544360892659 14  12.111380145276 14  C 12.111380145276 14  9.88861985472022 14  9.88861985472022 14  C 8.84556391073037 14  7.99999999999953 13.1655491185965  7.99999999999953 12.1362017910086  C 7.99999999999953 12.1362017910086  7.99999999999953 9.86021743964415  7.99999999999953 9.86021743964415  C 7.99999907083712 9.36623638170914  8.19909392582759 8.89253968760192  8.5533836446187 8.54357867948346  C 8.90767336340981 8.19461767136501  9.3880609972207 7.99905166403097  9.88861985472022 8.00000345797775  C 9.88861985472022 8.00000345797775  12.111380145276 8.00000345797775  12.111380145276 8.00000345797775  C 12.6119390027755 7.99905166403097  13.0923266365864 8.19461767136501  13.4466163553775 8.54357867948346  C 13.8009060741686 8.89253968760192  14.0000009291591 9.36623638170914  13.9999999999967 9.86021743964415  Z " fill-rule="nonzero" fill="#ffffff" stroke="none" transform="matrix(1 0 0 1 17 53 )" />
  </g>
</svg>