<?xml version="1.0" encoding="utf-8"?>
<svg version="1.1" xmlns:xlink="http://www.w3.org/1999/xlink" width="16px" height="14px" xmlns="http://www.w3.org/2000/svg">
  <g transform="matrix(1 0 0 1 -16 -133 )">
    <path d="M 8.50770391446177 13.4460435279032  C 8.70132769779401 13.195587763745  8.75682665923675 12.8671721198477  8.65599999999995 12.5685  C 8.65599999999995 12.5685  14.256 6.56774999999988  14.256 6.56774999999988  C 14.4044245084551 6.66111857252264  14.5759166211611 6.71285145027201  14.752 6.71737499999972  C 15.3219578618254 6.71737499999972  15.784 6.26255227023421  15.784 5.70149999999967  C 15.784 5.14044772976553  15.3219578618254 4.68562500000002  14.752 4.68562500000002  C 14.752 4.68562500000002  14.8 4.63837499999994  14.8 4.63837499999994  C 14.6620233396794 4.63977515717522  14.5258340690516 4.6692686460957  14.3999999999999 4.72499999999968  C 14.3999999999999 4.72499999999968  7.69600000000001 1.02374999999967  7.69600000000001 1.02374999999967  C 7.67832688800536 0.475745456980178  7.21270302782937 0.045603030380164  6.65599999999995 0.062999999999704  C 6.09929697217053 0.0803969696196418  5.66232688800543 0.53874545698028  5.67999999999999 1.08674999999977  C 5.68518963846479 1.1698282025643  5.7013247414447 1.25189032787574  5.72799999999996 1.33087499999976  C 5.72799999999996 1.33087499999976  2.15999999999996 3.28387499999974  2.15999999999996 3.28387499999974  C 1.9912767736414 3.1847832123168  1.79610035054146 3.13812384866952  1.59999999999996 3.14999999999992  C 1.09599890597605 3.1662384118722  0.679030528279327 3.54125664948788  0.617219686739291 4.03390525698461  C 0.555408845199256 4.52655386448095  0.867157209558678 4.99016671098832  1.35199999999996 5.12662499999993  C 1.35199999999996 5.12662499999993  2.32800000000003 8.66249999999968  2.32800000000003 8.66249999999968  C 2.10705041830968 8.96214072311631  2.07395927121615 9.35795171443931  2.24217116475625 9.68911887984638  C 2.41038305829625 10.0202860452534  2.75191271092929 10.2317133617112  3.12800000000001 10.2374999999998  C 3.16797041943604 10.2396415281719  3.20802958056397 10.2396415281719  3.248 10.2374999999998  C 3.248 10.2374999999998  6.64799999999994 13.0725  6.64799999999994 13.0725  C 6.64799999999994 13.0725  6.73599999999998 13.1197499999997  6.73599999999998 13.1197499999997  C 6.86471845396833 13.5323177694022  7.2495918804234 13.8156666798714  7.688 13.8206250000001  C 8.00731063159674 13.8366842645881  8.31408013112953 13.6964992920609  8.50770391446177 13.4460435279032  Z M 13.056 6.37874999999997  L 8.07199999999991 11.6943749999998  C 8.07199999999991 11.6943749999998  7.59999999999996 7.89862500000004  7.59999999999996 7.89862500000004  C 7.9504751212271 7.6379973429548  8.17159393937578 7.24276563962718  8.20799999999993 6.81187499999987  C 8.20799999999993 6.81187499999987  13.056 6.37874999999997  13.056 6.37874999999997  Z M 13.56 5.31562499999984  C 13.56 5.31562499999984  7.96000000000004 5.81174999999985  7.96000000000004 5.81174999999985  C 7.79950978458793 5.57676816550622  7.57489831812614 5.39115174530474  7.312 5.27624999999978  C 7.312 5.27624999999978  7.27200000000004 1.9057499999999  7.27200000000004 1.9057499999999  L 13.56 5.31562499999984  Z M 5.90399999999995 5.42587500000002  C 5.90399999999995 5.42587500000002  2.80799999999999 4.08712499999984  2.80799999999999 4.08712499999984  L 6.248 2.20499999999998  C 6.248 2.20499999999998  6.35999999999998 5.21325000000007  6.35999999999998 5.21325000000007  C 6.19675670345522 5.25790893159245  6.04251563764067 5.32982890224775  5.90399999999995 5.42587500000002  Z M 3.30400000000009 8.22150000000016  C 3.30400000000009 8.22150000000016  2.40000000000004 5.01637500000015  2.40000000000004 5.01637500000015  C 2.40000000000004 5.01637500000015  5.23200000000007 6.30000000000024  5.23200000000007 6.30000000000024  C 5.19313050781471 6.43059122301736  5.17161801259944 6.56559053381164  5.16800000000007 6.70162500000009  C 5.16878972325089 6.83474282500146  5.18762261563067 6.96716159954701  5.22400000000006 7.09537500000033  C 5.22400000000006 7.09537500000033  3.60000000000006 8.28450000000026  3.60000000000006 8.28450000000026  C 3.50526418623657 8.24846782786659  3.40539558331804 8.22721201035353  3.30400000000009 8.22150000000016  Z M 6.60800000000007 8.15850000000006  C 6.60800000000007 8.15850000000006  7.08800000000004 11.9542499999998  7.08800000000004 11.9542499999998  C 7.08800000000004 11.9542499999998  4.08800000000004 9.56024999999994  4.08800000000004 9.56024999999994  C 4.13349116866508 9.4473592039206  4.15788311204576 9.32730510759421  4.16000000000006 9.20587499999976  C 4.16000000000006 9.20587499999976  4.16000000000006 9.14287500000006  4.16000000000006 9.1035  C 4.16000000000006 9.1035  5.80799999999999 7.875  5.80799999999999 7.875  C 6.04097910187445 8.04408272937678  6.3189977430305 8.14260558533664  6.60800000000007 8.15850000000006  Z " fill-rule="nonzero" fill="#ffffff" stroke="none" transform="matrix(1 0 0 1 16 133 )" />
  </g>
</svg>