<?xml version="1.0" encoding="utf-8"?>
<svg version="1.1" xmlns:xlink="http://www.w3.org/1999/xlink" width="4px" height="4px" xmlns="http://www.w3.org/2000/svg">
  <defs>
    <mask fill="white" id="clip19">
      <path d="M 0 2  C 0 3.1045694996  0.8954305004 4  2 4  C 3.1045694996 4  4 3.1045694996  4 2  C 4 0.8954305004  3.1045694996 0  2 0  C 0.8954305004 0  0 0.8954305004  0 2  Z " fill-rule="evenodd" />
    </mask>
  </defs>
  <g transform="matrix(1 0 0 1 1 -60 )">
    <path d="M 0 2  C 0 3.1045694996  0.8954305004 4  2 4  C 3.1045694996 4  4 3.1045694996  4 2  C 4 0.8954305004  3.1045694996 0  2 0  C 0.8954305004 0  0 0.8954305004  0 2  Z " fill-rule="nonzero" fill="#ffffff" stroke="none" transform="matrix(1 0 0 1 -1 60 )" />
    <path d="M 0 2  C 0 3.1045694996  0.8954305004 4  2 4  C 3.1045694996 4  4 3.1045694996  4 2  C 4 0.8954305004  3.1045694996 0  2 0  C 0.8954305004 0  0 0.8954305004  0 2  Z " stroke-width="2" stroke="#e77708" fill="none" transform="matrix(1 0 0 1 -1 60 )" mask="url(#clip19)" />
  </g>
</svg>