<?xml version="1.0" encoding="utf-8"?>
<svg version="1.1" xmlns:xlink="http://www.w3.org/1999/xlink" width="11px" height="11px" xmlns="http://www.w3.org/2000/svg">
  <g transform="matrix(1 0 0 1 -19 -583 )">
    <path d="M 8.91532687217284 5.31962487822784  C 8.91532687217284 5.31962487822784  4.87204724776154 9.19715932235613  4.87204724776154 9.19715932235613  C 4.60319588643858 9.45915082281954  4.60686327694202 9.87949207104066  4.88024862631005 10.1371676724484  C 5.01107953356416 10.262737512071  5.18890744112355 10.333333333333  5.37438168385722 10.333333333333  C 5.5598559265909 10.333333333333  5.7376838341504 10.262737512071  5.8685147414044 10.1371676724484  C 5.8685147414044 10.1371676724484  10.5022936213079 5.71129502409894  10.5022936213079 5.71129502409894  C 10.6074753140225 5.61196722245859  10.6666666666667 5.47656700372499  10.6666666666667 5.33529168406221  C 10.6666666666667 5.19401636439943  10.6074753140225 5.05861614566584  10.5022936213079 4.95928834402548  C 10.5022936213079 4.95928834402548  5.860313362856 0.529498994217647  5.860313362856 0.529498994217647  C 5.7294824556019 0.403929154595062  5.55165454804239 0.33333333333303  5.36618030530872 0.33333333333303  C 5.18070606257504 0.33333333333303  5.00287815501565 0.403929154595062  4.87204724776154 0.529498994217647  C 4.74057874041205 0.654459841289281  4.66666666666674 0.824309049156  4.66666666666674 1.00146151999252  C 4.66666666666674 1.17861399082994  4.74057874041205 1.34846319869666  4.87204724776154 1.4734240457683  C 4.87204724776154 1.4734240457683  8.91532687217284 5.31962487822784  8.91532687217284 5.31962487822784  Z M 3.77499782786833 5.31766038887417  C 3.77499782786833 5.31766038887417  0.177302956174572 9.19671414255208  0.177302956174572 9.19671414255208  C -0.0619199652478528 9.45880829747057  -0.0586567350900395 9.87931424531871  0.18460051169518 10.1370908101107  C 0.301013356665294 10.262709850962  0.459243954224803 10.333333333333  0.624278231815993 10.333333333333  C 0.789312509407296 10.333333333333  0.947543106966805 10.262709850962  1.0639559519368 10.1370908101107  C 1.0639559519368 10.1370908101107  5.18707482111938 5.7094840003565  5.18707482111938 5.7094840003565  C 5.280665092292 5.61011727973801  5.33333333333348 5.47466400800204  5.33333333333348 5.33333333333303  C 5.33333333333348 5.19200265866402  5.280665092292 5.05654938692805  5.18707482111938 4.95718266630956  C 5.18707482111938 4.95718266630956  1.0639559519368 0.529575856555311  1.0639559519368 0.529575856555311  C 0.947543106966805 0.403956815704078  0.789312509407296 0.33333333333303  0.624278231815993 0.33333333333303  C 0.459243954224803 0.33333333333303  0.301013356665294 0.403956815704078  0.18460051169518 0.529575856555311  C 0.0676203325790539 0.654585666236926  0.00185364974458935 0.824501425034214  0.00185364974458935 1.00172330839177  C 0.00185364974458935 1.17894519175024  0.0676203325790539 1.34886095054662  0.18460051169518 1.47387076022824  C 0.18460051169518 1.47387076022824  3.77499782786833 5.31766038887417  3.77499782786833 5.31766038887417  Z " fill-rule="nonzero" fill="#ffffff" stroke="none" transform="matrix(1 0 0 1 19 583 )" />
  </g>
</svg>