<?xml version="1.0" encoding="utf-8"?>
<svg version="1.1" xmlns:xlink="http://www.w3.org/1999/xlink" width="14px" height="14px" xmlns="http://www.w3.org/2000/svg">
  <g transform="matrix(1 0 0 1 -351 -378 )">
    <path d="M 13.1800000000001 9.08666666666704  C 13.26 8.94000000000051  13.2266666666667 8.77333333333354  13.1000000000001 8.68000000000029  C 13.1000000000001 8.68000000000029  11.76 7.62666666666701  11.76 7.62666666666701  C 11.7866666666666 7.42666666666719  11.8 7.22000000000025  11.8 7  C 11.8 6.78666666666686  11.7866666666666 6.57333333333372  11.7533333333333 6.3733333333339  C 11.7533333333333 6.3733333333339  13.1066666666668 5.32000000000062  13.1066666666668 5.32000000000062  C 13.2266666666667 5.22666666666737  13.26 5.04666666666708  13.1866666666667 4.91333333333387  C 13.1866666666667 4.91333333333387  11.9066666666668 2.70000000000073  11.9066666666668 2.70000000000073  C 11.8266666666666 2.55333333333328  11.6600000000001 2.50666666666712  11.5133333333333 2.55333333333328  C 11.5133333333333 2.55333333333328  9.92000000000007 3.19333333333361  9.92000000000007 3.19333333333361  C 9.58666666666659 2.94000000000051  9.23333333333335 2.72666666666737  8.83999999999992 2.56666666666661  C 8.83999999999992 2.56666666666661  8.59999999999991 0.873333333333903  8.59999999999991 0.873333333333903  C 8.57333333333327 0.713333333334049  8.44000000000005 0.600000000000364  8.27999999999997 0.600000000000364  C 8.27999999999997 0.600000000000364  5.72000000000003 0.600000000000364  5.72000000000003 0.600000000000364  C 5.55999999999995 0.600000000000364  5.43333333333339 0.713333333334049  5.40666666666675 0.873333333333903  C 5.40666666666675 0.873333333333903  5.16666666666674 2.56666666666661  5.16666666666674 2.56666666666661  C 4.77333333333331 2.72666666666737  4.41333333333341 2.94666666666672  4.08666666666659 3.19333333333361  C 4.08666666666659 3.19333333333361  2.49333333333334 2.55333333333328  2.49333333333334 2.55333333333328  C 2.34666666666658 2.5  2.18000000000006 2.55333333333328  2.09999999999991 2.70000000000073  C 2.09999999999991 2.70000000000073  0.826666666666597 4.91333333333387  0.826666666666597 4.91333333333387  C 0.74666666666667 5.05333333333419  0.773333333333312 5.22666666666737  0.906666666666524 5.32000000000062  C 0.906666666666524 5.32000000000062  2.25999999999999 6.3733333333339  2.25999999999999 6.3733333333339  C 2.22666666666669 6.57333333333372  2.20000000000005 6.79333333333398  2.20000000000005 7  C 2.20000000000005 7.20666666666693  2.21333333333337 7.42666666666719  2.24666666666667 7.62666666666701  C 2.24666666666667 7.62666666666701  0.893333333333203 8.68000000000029  0.893333333333203 8.68000000000029  C 0.773333333333312 8.77333333333354  0.740000000000009 8.95333333333383  0.813333333333276 9.08666666666704  C 0.813333333333276 9.08666666666704  2.09333333333325 11.3000000000002  2.09333333333325 11.3000000000002  C 2.1733333333334 11.4466666666676  2.33999999999992 11.4933333333338  2.48666666666668 11.4466666666676  C 2.48666666666668 11.4466666666676  4.07999999999993 10.8066666666673  4.07999999999993 10.8066666666673  C 4.41333333333341 11.0600000000004  4.76666666666665 11.2733333333335  5.16000000000008 11.4333333333343  C 5.16000000000008 11.4333333333343  5.40000000000009 13.126666666667  5.40000000000009 13.126666666667  C 5.43333333333339 13.2866666666669  5.55999999999995 13.4000000000005  5.72000000000003 13.4000000000005  C 5.72000000000003 13.4000000000005  8.27999999999997 13.4000000000005  8.27999999999997 13.4000000000005  C 8.44000000000005 13.4000000000005  8.57333333333327 13.2866666666669  8.59333333333325 13.126666666667  C 8.59333333333325 13.126666666667  8.83333333333326 11.4333333333343  8.83333333333326 11.4333333333343  C 9.22666666666669 11.2733333333335  9.58666666666659 11.0600000000004  9.91333333333341 10.8066666666673  C 9.91333333333341 10.8066666666673  11.5066666666667 11.4466666666676  11.5066666666667 11.4466666666676  C 11.6533333333334 11.5000000000009  11.8199999999999 11.4466666666676  11.9000000000001 11.3000000000002  C 11.9000000000001 11.3000000000002  13.1800000000001 9.08666666666704  13.1800000000001 9.08666666666704  Z M 7 4.60000000000036  C 8.31999999999994 4.60000000000036  9.39999999999986 5.68000000000029  9.39999999999986 7  C 9.39999999999986 8.32000000000062  8.31999999999994 9.40000000000055  7 9.40000000000055  C 5.67999999999984 9.40000000000055  4.59999999999991 8.32000000000062  4.59999999999991 7  C 4.59999999999991 5.68000000000029  5.67999999999984 4.60000000000036  7 4.60000000000036  Z " fill-rule="nonzero" fill="#bfbfbf" stroke="none" transform="matrix(1 0 0 1 351 378 )" />
  </g>
</svg>