<?xml version="1.0" encoding="utf-8"?>
<svg version="1.1" xmlns:xlink="http://www.w3.org/1999/xlink" width="1885px" height="35px" xmlns="http://www.w3.org/2000/svg">
  <g transform="matrix(1 0 0 1 0 -57 )">
    <path d="M 0 7.24528301886792  L 39.5294117647059 16.3018867924528  L 80 18.7169811320755  L 119.529411764706 18.1132075471698  L 160.529411764706 6.0377358490566  L 198.588235294118 16.3018867924528  L 238.117647058824 13.8867924528302  L 279.529411764706 9.66037735849057  L 320 5.43396226415094  L 360.48623853211 7.5499394149212  L 401.036697247706 13.5322831919682  L 441.403669724771 20.1793318331314  L 481.220183486239 10.5411113034446  L 520.48623853211 19.6254111130344  L 560.853211009174 21.0102129132768  L 601.770642201835 27.6018694824303  L 641.770642201835 32  L 680.853211009174 22.0626622814609  L 721.770642201835 19.6254111130344  L 761.770642201835 23.6690323697421  L 801.587155963303 27.6018694824303  L 841.788732394366 22.0626622814609  L 882.308775731311 19.6254111130344  L 921.423791821561 18.7169811320755  L 961.386617100372 18.1132075471698  L 1001.72118959108 12.3964368380445  L 1041.86988847584 9.66037735849057  L 1081.83271375465 14.0349302097216  L 1121.60966542751 14.6409483060953  L 1161.38661710037 10.5411113034446  L 1202.09293680297 18.1132075471698  L 1241.86988847584 16.7732342007435  L 1282.76208178439 18.7169811320755  L 1321.23791821561 16.7732342007435  L 1361.75836431227 22.6089640176756  L 1401.72118959108 12.3964368380445  L 1441.68401486989 9.66037735849057  L 1481.83271375465 11.7904187416708  L 1521.60966542751 17.4465876411587  L 1562.13011152416 17.6312965206855  L 1601.53531598513 18.1132075471698  L 1642.24163568773 4.22641509433962  L 1681.46096654275 22.6089640176756  L 1721.63963963964 17.6312965206855  L 1761.75836431227 14.1415959840748  L 1801.72118959108 6.3587009889879  L 1841.49814126394 0.60377358490566  L 1881.2750929368 0.320965139931293  " stroke-width="2" stroke="#1f7ffb" fill="none" transform="matrix(1 0 0 1 1 58 )" />
  </g>
</svg>