<?xml version="1.0" encoding="utf-8"?>
<svg version="1.1" xmlns:xlink="http://www.w3.org/1999/xlink" width="6px" height="11px" xmlns="http://www.w3.org/2000/svg">
  <g transform="matrix(1 0 0 1 -286 -67 )">
    <path d="M 0.490935961045423 9.19671414255208  C 0.278293364225554 9.45880829747057  0.281194013254634 9.87931424531871  0.49742267706381 10.1370908101107  C 0.600900761481626 10.262709850962  0.741550181534492 10.333333333333  0.888247317171171 10.333333333333  C 1.03494445280785 10.333333333333  1.17559387286072 10.262709850962  1.27907195727855 10.1370908101107  C 1.27907195727855 10.1370908101107  4.94406650766297 5.7094840003565  4.94406650766297 5.7094840003565  C 5.02725785981639 5.61011727973801  5.07407407407555 5.47466400800204  5.07407407407555 5.33333333333303  C 5.07407407407555 5.19200265866402  5.02725785981639 5.05654938692805  4.94406650766297 4.95718266630956  C 4.94406650766297 4.95718266630956  1.27907195727855 0.529575856555311  1.27907195727855 0.529575856555311  C 1.17559387286072 0.403956815704078  1.03494445280785 0.33333333333303  0.888247317171171 0.33333333333303  C 0.741550181534492 0.33333333333303  0.600900761481626 0.403956815704078  0.49742267706381 0.529575856555311  C 0.393440295627229 0.654585666236926  0.334981021996576 0.824501425034214  0.334981021996576 1.00172330839177  C 0.334981021996576 1.17894519175024  0.393440295627229 1.34886095054662  0.49742267706381 1.47387076022824  C 0.49742267706381 1.47387076022824  3.68888695810654 5.31766038887417  3.68888695810654 5.31766038887417  C 3.68888695810654 5.31766038887417  0.490935961045423 9.19671414255208  0.490935961045423 9.19671414255208  Z " fill-rule="nonzero" fill="#888888" stroke="none" transform="matrix(1 0 0 1 286 67 )" />
  </g>
</svg>