<?xml version="1.0" encoding="utf-8"?>
<svg version="1.1" xmlns:xlink="http://www.w3.org/1999/xlink" width="7px" height="10px" xmlns="http://www.w3.org/2000/svg">
  <g transform="matrix(1 0 0 1 -688 -621 )">
    <path d="M 1.14599999999996 5.85399999999981  C 1.05252502223755 5.76004566337724  1.00385810328373 5.63851713671829  1 5.51585026077191  C 1 7.51055290776594  1 9.5  1 9.5  C 1 9.77599999999984  0.775999999999954 10  0.5 10  C 0.224000000000046 10  0 9.77599999999984  0 9.5  C 0 9.5  0 1.5  0 1.5  C 0 1.22400000000016  0.224000000000046 1  0.5 1  C 0.775999999999954 1  1 1.22400000000016  1 1.5  C 1 1.5  1 3.48942703487273  1.00000019204754 5.48411957976987  C 1.00386607426367 5.36146295949584  1.05253267691455 5.23994664269139  1.14599999999996 5.14600000000019  C 1.14599999999996 5.14600000000019  5.14599999999996 1.14599999999973  5.14599999999996 1.14599999999973  C 5.34199999999998 0.951000000000022  5.6579999999999 0.951000000000022  5.85399999999993 1.14599999999973  C 6.04899999999998 1.3420000000001  6.04899999999998 1.6579999999999  5.85399999999993 1.85399999999981  C 5.85399999999993 1.85399999999981  2.20699999999999 5.5  2.20699999999999 5.5  C 2.20699999999999 5.5  5.85399999999993 9.14600000000019  5.85399999999993 9.14600000000019  C 6.04899999999998 9.3420000000001  6.04899999999998 9.6579999999999  5.85399999999993 9.85399999999981  C 5.75599999999997 9.95100000000002  5.62799999999993 10  5.49999999999989 10  C 5.37199999999996 10  5.24399999999991 9.95100000000002  5.14599999999996 9.85399999999981  C 5.14599999999996 9.85399999999981  1.14599999999996 5.85399999999981  1.14599999999996 5.85399999999981  Z " fill-rule="nonzero" fill="#bfbfbf" stroke="none" transform="matrix(1 0 0 1 688 621 )" />
  </g>
</svg>