<?xml version="1.0" encoding="utf-8"?>
<svg version="1.1" xmlns:xlink="http://www.w3.org/1999/xlink" width="6px" height="10px" xmlns="http://www.w3.org/2000/svg">
  <g transform="matrix(1 0 0 1 -1121 -622 )">
    <path d="M 0.50019998000198 9  C 0.628187181281874 9  0.756174382561767 8.95100136107339  0.85416458354166 8.85400405544306  C 0.85416458354166 8.85400405544306  4.85376462353764 4.85411516346767  4.85376462353764 4.85411516346767  C 5.04874512548747 4.65812060776079  5.04874512548747 4.34212938529481  4.85376462353764 4.14613482958794  C 4.85376462353764 4.14613482958794  0.85416458354166 0.146245937613003  0.85416458354166 0.146245937613003  C 0.658184181581817 -0.0487486458710009  0.342215778422144 -0.0487486458710009  0.146235376462357 0.146245937613003  C -0.0487451254874713 0.342240493319423  -0.0487451254874713 0.65823171578586  0.146235376462357 0.85422627149228  C 0.146235376462357 0.85422627149228  3.79287071292873 4.50012499652803  3.79287071292873 4.50012499652803  C 3.79287071292873 4.50012499652803  0.146235376462357 8.14602372156332  0.146235376462357 8.14602372156332  C -0.0487451254874713 8.3420182772702  -0.0487451254874713 8.65800949973618  0.146235376462357 8.85400405544306  C 0.244225577442251 8.95100136107339  0.372212778722144 9  0.50019998000198 9  Z " fill-rule="nonzero" fill="#029af2" stroke="none" transform="matrix(1 0 0 1 1121 622 )" />
  </g>
</svg>