<?xml version="1.0" encoding="utf-8"?>
<svg version="1.1" xmlns:xlink="http://www.w3.org/1999/xlink" width="94px" height="94px" xmlns="http://www.w3.org/2000/svg">
  <g transform="matrix(1 0 0 1 -725 -146 )">
    <path d="M 47 11.75  C 47 11.75  47 0  47 0  C 63.7942689552382 0  79.3050146641665 8.95711538461538  87.7021491417857 23.5  C 96.0992836194048 38.0428846153846  96.0992836194048 55.9571153846154  87.7021491417857 70.5  C 79.3050146641665 85.0428846153846  63.7942689552382 94  47 94  C 30.2057310447618 94  14.6949853358335 85.0428846153846  6.29785085821434 70.5  C -2.09928361940478 55.9571153846154  -2.09928361940478 38.0428846153846  6.29785085821434 23.5  C 14.6949853358335 8.95711538461538  30.2057310447618 0  47 0  C 47 0  47 11.75  47 11.75  C 34.4088177316217 11.75  22.7757584499255 18.4655769230769  16.4756478676859 29.375  C 10.1755372854464 40.2844230769231  10.1755372854464 53.7155769230769  16.4756478676859 64.625  C 22.7757584499255 75.5344230769231  34.4088177316217 82.25  47 82.25  C 59.5911822683783 82.25  71.2242415500745 75.5344230769231  77.5243521323141 64.625  C 83.8244627145536 53.7155769230769  83.8244627145536 40.2844230769231  77.5243521323141 29.375  C 71.2242415500745 18.4655769230769  59.5911822683783 11.75  47 11.75  Z " fill-rule="nonzero" fill="#455a64" stroke="none" fill-opacity="0.00392156862745098" transform="matrix(1 0 0 1 725 146 )" />
  </g>
</svg>