<?xml version="1.0" encoding="utf-8"?>
<svg version="1.1" xmlns:xlink="http://www.w3.org/1999/xlink" width="75px" height="94px" xmlns="http://www.w3.org/2000/svg">
  <g transform="matrix(1 0 0 1 -744 -146 )">
    <path d="M 27.7624685825031 11.75  C 27.7624685825031 11.75  27.7624685825031 0  27.7624685825031 0  C 44.641613420949 0  60.2307482663598 8.95711538461538  68.6703206855828 23.5  C 77.1098931048058 38.0428846153846  77.1098931048058 55.9571153846154  68.6703206855828 70.5  C 60.2307482663598 85.0428846153846  44.641613420949 94  27.7624685825031 94  C 17.78760258002 94  8.0671047451776 90.8546153846154  0 85.0248076923077  C 0 85.0248076923077  6.94061714562577 75.5163461538461  6.94061714562577 75.5163461538461  C 17.1789358931654 82.9188461538462  30.6059413136299 84.3288461538462  42.1706083638676 79.2040384615385  C 53.7352754141053 74.0792307692308  61.6751960754626 63.215  63.0015443781607 50.6876923076923  C 64.3278926808588 38.1603846153846  58.82263876692 25.8861538461538  48.5843200193804 18.4836538461539  C 42.5339914604972 14.1090384615385  35.2481603730733 11.75  27.7624685825031 11.75  Z " fill-rule="nonzero" fill="#4b97fa" stroke="none" transform="matrix(1 0 0 1 744 146 )" />
  </g>
</svg>