<?xml version="1.0" encoding="utf-8"?>
<svg version="1.1" xmlns:xlink="http://www.w3.org/1999/xlink" width="13px" height="12px" xmlns="http://www.w3.org/2000/svg">
  <g transform="matrix(1 0 0 1 -17 -13 )">
    <path d="M 13 2.66666666666667  C 13 1.93333333333333  12.415 1.33333333333333  11.7 1.33333333333333  L 9.6395 1.33333333333333  L 8.45 0  L 4.55 0  L 3.3605 1.33333333333333  L 1.3 1.33333333333333  C 0.585 1.33333333333333  0 1.93333333333333  0 2.66666666666667  L 0 10.6666666666667  C 0 11.4  0.585 12  1.3 12  L 11.7 12  C 12.415 12  13 11.4  13 10.6666666666667  L 13 2.66666666666667  Z M 10.725 6.66666666666667  L 8.45 9  L 8.45 7.33333333333333  L 4.55 7.33333333333333  L 4.55 9  L 2.275 6.66666666666667  L 4.55 4.33333333333333  L 4.55 6  L 8.45 6  L 8.45 4.33333333333333  L 10.725 6.66666666666667  Z " fill-rule="nonzero" fill="#bfbfbf" stroke="none" transform="matrix(1 0 0 1 17 13 )" />
  </g>
</svg>