<?xml version="1.0" encoding="utf-8"?>
<svg version="1.1" xmlns:xlink="http://www.w3.org/1999/xlink" width="12px" height="12px" xmlns="http://www.w3.org/2000/svg">
  <g transform="matrix(1 0 0 1 -19 -99 )">
    <path d="M 12 7.33333333333333  C 12 6.96666666666667  11.7 6.66666666666667  11.3333333333333 6.66666666666667  L 0.666666666666667 6.66666666666667  C 0.3 6.66666666666667  0 6.96666666666667  0 7.33333333333333  L 0 11.3333333333333  C 0 11.7  0.3 12  0.666666666666667 12  L 11.3333333333333 12  C 11.7 12  12 11.7  12 11.3333333333333  L 12 7.33333333333333  Z M 4 9.33333333333333  C 4 10.0666666666667  3.4 10.6666666666667  2.66666666666667 10.6666666666667  C 1.93333333333333 10.6666666666667  1.33333333333333 10.0666666666667  1.33333333333333 9.33333333333333  C 1.33333333333333 8.6  1.93333333333333 8  2.66666666666667 8  C 3.4 8  4 8.6  4 9.33333333333333  Z M 12 0.666666666666667  C 12 0.3  11.7 0  11.3333333333333 0  L 0.666666666666667 0  C 0.3 0  0 0.3  0 0.666666666666667  L 0 4.66666666666667  C 0 5.03333333333333  0.3 5.33333333333333  0.666666666666667 5.33333333333333  L 11.3333333333333 5.33333333333333  C 11.7 5.33333333333333  12 5.03333333333333  12 4.66666666666667  L 12 0.666666666666667  Z M 4 2.66666666666667  C 4 3.4  3.4 4  2.66666666666667 4  C 1.93333333333333 4  1.33333333333333 3.4  1.33333333333333 2.66666666666667  C 1.33333333333333 1.93333333333333  1.93333333333333 1.33333333333333  2.66666666666667 1.33333333333333  C 3.4 1.33333333333333  4 1.93333333333333  4 2.66666666666667  Z " fill-rule="nonzero" fill="#029af2" stroke="none" transform="matrix(1 0 0 1 19 99 )" />
  </g>
</svg>