<?xml version="1.0" encoding="utf-8"?>
<svg version="1.1" xmlns:xlink="http://www.w3.org/1999/xlink" width="15px" height="15px" xmlns="http://www.w3.org/2000/svg">
  <g transform="matrix(1 0 0 1 -17 -93 )">
    <path d="M 1.42105263157895 7.82368421052638  L 0 7.82368421052638  L 0 14  L 14.2105263157895 14  L 14.2105263157895 7.82368421052638  L 11.3526315789473 7.83157894736846  L 11.3526315789473 0  L 3.55263157894736 0  L 3.55263157894736 2.11578947368437  L 1.42105263157895 2.11578947368437  L 1.42105263157895 7.82368421052638  Z M 5.69210526315786 9.97105263157863  L 5.69210526315786 7.82368421052595  L 4.97368421052631 7.83157894736803  L 4.97368421052631 1.40526315789458  L 9.94736842105262 1.40526315789458  L 9.94736842105262 7.82368421052595  L 9.23684210526314 7.82368421052595  L 9.23684210526314 9.97105263157863  L 5.69210526315786 9.97105263157863  Z M 4.28684210526306 3.57631578947348  L 4.28684210526306 7.83157894736803  L 2.82631578947363 7.83157894736803  L 2.82631578947363 3.57631578947348  L 4.28684210526306 3.57631578947348  Z M 4.97368421052631 7.83157894736803  L 4.40526315789473 7.82368421052595  L 4.97368421052631 7.83157894736803  Z M 10.6578947368421 9.24473684210511  L 12.8052631578948 9.24473684210511  L 12.7973684210527 12.7894736842103  L 1.42105263157895 12.7894736842103  L 1.42105263157895 9.23684210526304  L 4.27105263157891 9.23684210526304  L 4.27105263157891 11.3605263157895  L 10.6578947368421 11.3605263157895  L 10.6578947368421 9.24473684210511  Z M 5.68421052631578 4.28684210526328  L 9.23684210526314 4.28684210526328  L 9.23684210526314 3.56052631578933  L 5.68421052631578 3.56052631578933  L 5.68421052631578 4.28684210526328  Z M 5.68421052631578 6.38684210526307  L 9.29999999999996 6.38684210526307  L 9.23684210526314 5.69999999999993  L 5.68421052631578 5.69999999999993  L 5.68421052631578 6.38684210526307  Z " fill-rule="nonzero" fill="#ffffff" stroke="none" transform="matrix(1 0 0 1 17 93 )" />
  </g>
</svg>