<?xml version="1.0" encoding="utf-8"?>
<svg version="1.1" xmlns:xlink="http://www.w3.org/1999/xlink" width="11px" height="11px" xmlns="http://www.w3.org/2000/svg">
  <g transform="matrix(1 0 0 1 -166 -582 )">
    <path d="M 1.75133979449398 5.31962487822875  C 1.75133979449398 5.31962487822875  5.79461941890519 9.19715932235704  5.79461941890519 9.19715932235704  C 6.06347078022792 9.45915082282045  6.0598033897246 9.87949207104157  5.78641804035657 10.1371676724493  C 5.65558713310258 10.2627375120719  5.47775922554308 10.3333333333339  5.2922849828093 10.3333333333339  C 5.10681074007574 10.3333333333339  4.92898283251624 10.2627375120719  4.79815192526225 10.1371676724493  C 4.79815192526225 10.1371676724493  0.16437304535884 5.71129502409985  0.16437304535884 5.71129502409985  C 0.0591913526443465 5.6119672224595  0 5.4765670037259  0 5.33529168406312  C 0 5.19401636440034  0.0591913526443465 5.05861614566675  0.16437304535884 4.95928834402639  C 0.16437304535884 4.95928834402639  4.80635330381064 0.529498994218557  4.80635330381064 0.529498994218557  C 4.93718421106486 0.403929154595971  5.11501211862436 0.33333333333394  5.30048636135792 0.33333333333394  C 5.48596060409147 0.33333333333394  5.66378851165097 0.403929154595971  5.79461941890519 0.529498994218557  C 5.92608792625457 0.654459841290191  5.99999999999988 0.824309049156909  5.99999999999988 1.00146151999343  C 5.99999999999988 1.17861399083085  5.92608792625457 1.34846319869757  5.79461941890519 1.47342404576921  C 5.79461941890519 1.47342404576921  1.75133979449398 5.31962487822875  1.75133979449398 5.31962487822875  Z M 6.89166883879838 5.31766038887508  C 6.89166883879838 5.31766038887508  10.4893637104922 9.19671414255299  10.4893637104922 9.19671414255299  C 10.7285866319144 9.45880829747148  10.7253234017567 9.87931424531962  10.4820661549713 10.1370908101117  C 10.3656533100013 10.2627098509629  10.207422712442 10.3333333333339  10.0423884348507 10.3333333333339  C 9.87735415725936 10.3333333333339  9.71912355969996 10.2627098509629  9.60271071472997 10.1370908101117  C 9.60271071472997 10.1370908101117  5.47959184554759 5.70948400035741  5.47959184554759 5.70948400035741  C 5.38600157437498 5.61011727973892  5.33333333333337 5.47466400800295  5.33333333333337 5.33333333333394  C 5.33333333333337 5.19200265866493  5.38600157437498 5.05654938692896  5.47959184554759 4.95718266631047  C 5.47959184554759 4.95718266631047  9.60271071472997 0.529575856556221  9.60271071472997 0.529575856556221  C 9.71912355969996 0.403956815704987  9.87735415725936 0.33333333333394  10.0423884348507 0.33333333333394  C 10.207422712442 0.33333333333394  10.3656533100013 0.403956815704987  10.4820661549713 0.529575856556221  C 10.5990463340875 0.654585666237836  10.6648130169219 0.824501425035123  10.6648130169219 1.00172330839268  C 10.6648130169219 1.17894519175115  10.5990463340875 1.34886095054753  10.4820661549713 1.47387076022915  C 10.4820661549713 1.47387076022915  6.89166883879838 5.31766038887508  6.89166883879838 5.31766038887508  Z " fill-rule="nonzero" fill="#ffffff" stroke="none" transform="matrix(1 0 0 1 166 582 )" />
  </g>
</svg>