<?xml version="1.0" encoding="utf-8"?>
<svg version="1.1" xmlns:xlink="http://www.w3.org/1999/xlink" width="14px" height="12px" xmlns="http://www.w3.org/2000/svg">
  <g transform="matrix(1 0 0 1 -17 -174 )">
    <path d="M 1.04533333333334 9.78514285714261  C 1.37386666666665 9.59999999999985  1.79199999999996 9.22971428571431  3.60640000000003 9.22285714285694  C 4.51496684573672 9.17568344191178  5.41791091828565 9.38119973672812  6.19733333333332 9.81257142857131  C 6.15253333333332 9.75085714285693  6.13760000000002 1.54285714285691  6.13760000000002 1.54285714285691  C 5.52371380038902 0.839312689260883  4.58784262071354 0.43873210485942  3.60640000000003 0.459428571428621  C 2.63939280816523 0.450524164207699  1.6696463156508 0.871784517984842  1.11253333333334 1.59771428571431  C 1.11253333333334 1.59771428571431  1.04533333333334 9.78514285714261  1.04533333333334 9.78514285714261  Z M 9.99786666666666 9.24342857142866  C 10.8601953073677 9.17703542841017  11.7231599988061 9.36435800521576  12.4618666666666 9.77828571428563  C 12.4618666666666 9.77828571428563  12.4618666666666 1.59771428571431  12.4618666666666 1.59771428571431  C 11.8500146146096 0.856517276610378  10.8910985610941 0.426379457394432  9.87839999999995 0.438857142857289  C 8.89800414724968 0.405190550800528  7.9644463563901 0.817996728158765  7.39199999999996 1.54971428571428  C 7.39199999999996 1.54971428571428  7.39199999999996 9.77828571428563  7.39199999999996 9.77828571428563  C 8.19006280524563 9.38215235063191  9.09210295165438 9.19700756881217  9.99786666666666 9.24342857142866  Z M 8.23616236162358 12  L 5.71217712177124 12  L 5.71217712177124 11.2109397730579  L 0 11.2109397730579  L 0 1.71428571428571  L 0.933333333333333 1.71428571428571  L 0.933333333333333 10.526622054117  L 6.42804428044283 10.526622054117  L 6.42804428044283 11.4693046261275  L 7.4981549815498 11.4693046261275  L 7.4981549815498 10.526622054117  L 13.0666666666667 10.526622054117  L 13.0666666666667 1.72825138201922  L 14 1.77014838521968  L 14 11.2737852778586  L 8.23616236162358 11.2109397730579  L 8.23616236162358 12  Z M 5.04000000000008 8.31771428571444  C 4.54837354510279 8.22756284138034  4.04798314375281 8.18390633187482  3.54666666666673 8.18742857142869  C 3.06927263810254 8.1847461455757  2.59239912244777 8.21684683099764  2.12053333333338 8.28342857142876  C 2.12053333333338 8.28342857142876  2.17280000000008 1.96114285714287  2.17280000000008 1.96114285714287  C 2.54367247093467 1.640667560073  3.03762950766019 1.46808940283206  3.54666666666673 1.48114285714291  C 4.06799282301895 1.47027224373219  4.6361359401621 1.6376286486975  5.04000000000008 1.94057142857153  C 5.04000000000008 5.1840000000002  5.04000000000008 7.13142857142871  5.04000000000008 8.31771428571444  Z M 10.0053333333334 8.20800000000002  C 9.50441259891443 8.20540235924961  9.00436597448964 8.24673274351335  8.512 8.3314285714284  C 8.512 8.3314285714284  8.512 1.91999999999981  8.512 1.91999999999981  C 8.88496921429899 1.6093306921192  9.37517402105007 1.4445077309999  9.87839999999995 1.46057142857158  C 10.4287953997119 1.44658539720682  10.9414024368444 1.63523574757918  11.3493333333333 1.97485714285722  C 11.3493333333333 1.97485714285722  11.3493333333333 8.31085714285707  11.3493333333333 8.31085714285707  C 10.9055418969449 8.2400311633932  10.4557684666681 8.20560972740272  10.0053333333334 8.20800000000002  Z " fill-rule="nonzero" fill="#ffffff" stroke="none" transform="matrix(1 0 0 1 17 174 )" />
  </g>
</svg>