<?xml version="1.0" encoding="utf-8"?>
<svg version="1.1" xmlns:xlink="http://www.w3.org/1999/xlink" width="1885px" height="70px" xmlns="http://www.w3.org/2000/svg">
  <g transform="matrix(1 0 0 1 0 -9 )">
    <path d="M 0 52  L 39.5294117647059 7  L 80 41  L 119.529411764706 40  L 160.529411764706 0  L 198.588235294118 67  L 238.117647058824 63  L 279.529411764706 26  L 320 0  L 360.48623853211 22.5045871559632  L 401.036697247706 32.4128440366973  L 441.403669724771 43.4220183486239  L 481.220183486239 27.4587155963302  L 520.48623853211 42.5045871559632  L 560.853211009174 14.7981651376147  L 601.770642201835 55.7155963302752  L 641.770642201835 63  L 680.853211009174 46.5412844036697  L 721.770642201835 42.5045871559632  L 761.770642201835 19.2018348623853  L 801.587155963303 55.7155963302752  L 841.788732394366 46.5412844036697  L 882.308775731311 42.5045871559632  L 921.423791821561 41  L 961.386617100372 40  L 1001.72118959108 30.5315985130112  L 1041.86988847584 26  L 1081.83271375465 13.2453531598513  L 1121.60966542751 34.2490706319703  L 1161.38661710037 27.4587155963302  L 1202.09293680297 40  L 1241.86988847584 37.7806691449814  L 1282.76208178439 41  L 1321.23791821561 37.7806691449814  L 1361.75836431227 47.4460966542752  L 1401.72118959108 30.5315985130112  L 1441.68401486989 26  L 1481.83271375465 9.52788104089223  L 1521.60966542751 38.8959107806692  L 1562.13011152416 19.2018348623853  L 1601.53531598513 40  L 1642.24163568773 7  L 1681.46096654275 47.4460966542752  L 1721.98141263941 48.9330855018587  L 1761.75836431227 43.4220183486239  L 1801.72118959108 30.5315985130112  L 1841.49814126394 41  L 1881.2750929368 30.5315985130112  " stroke-width="2" stroke="#e77708" fill="none" transform="matrix(1 0 0 1 1 10 )" />
  </g>
</svg>