<?xml version="1.0" encoding="utf-8"?>
<svg version="1.1" xmlns:xlink="http://www.w3.org/1999/xlink" width="1889px" height="30px" xmlns="http://www.w3.org/2000/svg">
  <g transform="matrix(1 0 0 1 1 -76 )">
    <path d="M 0.813765182186216 24.960186948243  L 40.5294117647059 25.5660377358491  L 81.3805668016194 25.6691449814126  L 121.056680161943 0  L 161.947368421053 1  L 202.433198380567 1  L 239.07476635514 0.542056074766151  L 279.495327102804 0  L 319.214953271028 0  L 361.542510121457 26.4142288384975  L 402.028340080971 26.0943396226415  L 442.109311740891 25.6691449814126  L 482.19028340081 25.6691449814126  L 520.651821862348 25.2027074419584  L 559.923076923077 11  L 602.230769230769 11  L 644.538461538461 10.6666666666664  L 681.380566801619 25.6691449814126  L 722.770642201835 26.2930586809763  L 761.947368421052 26  L 802.838056680162 26  L 842.10931174089 26.4142288384975  L 881.380566801619 3  L 923.384615384615 3.34579439252298  L 962.352226720648 3  L 1002.83805668016 24.1132075471698  L 1043.32388663968 24.7117205583222  L 1082.83271375465 25.0701409833766  L 1121.86639676113 24.7117205583222  L 1163.12820512821 3  L 1204.15384615385 5  L 1241.97435897436 5  L 1283.80971659919 24.1132075471698  L 1320.24696356275 24.7117205583222  L 1363.16194331984 24.7117205583222  L 1402.72118959108 24.7117205583222  L 1442.68401486989 24.1132075471698  L 1486.20512820513 0  L 1523.38461538462 0.542056074766151  L 1565.05128205128 0  L 1606.07692307692 0.542056074766151  L 1640.8947368421 27  L 1682.46096654275 27  L 1723.48582995951 27  L 1764.41025641026 0  L 1806.71794871795 0  L 1843.89743589744 0  L 1885.5641025641 0  " stroke-width="2" stroke="#07bb75" fill="none" transform="matrix(1 0 0 1 0 77 )" />
  </g>
</svg>