<?xml version="1.0" encoding="utf-8"?>
<svg version="1.1" xmlns:xlink="http://www.w3.org/1999/xlink" width="13px" height="13px" xmlns="http://www.w3.org/2000/svg">
  <g transform="matrix(1 0 0 1 -1 -1 )">
    <path d="M 13 7.15  C 13 6.7925  12.8505 6.461  12.6165 6.227  L 6.7665 0.377  C 6.5325 0.143  6.2075 0  5.85 0  L 1.3 0  C 0.585 0  0 0.585  0 1.3  L 0 5.85  C 0 6.2075  0.143 6.5325  0.3835 6.773  L 6.2335 12.623  C 6.4675 12.857  6.7925 13  7.15 13  C 7.5075 13  7.8325 12.857  8.0665 12.6165  L 12.6165 8.0665  C 12.857 7.8325  13 7.5075  13 7.15  Z M 3.25 2.275  C 3.25 2.8145  2.8145 3.25  2.275 3.25  C 1.7355 3.25  1.3 2.8145  1.3 2.275  C 1.3 1.7355  1.7355 1.3  2.275 1.3  C 2.8145 1.3  3.25 1.7355  3.25 2.275  Z M 10.4 7.475  C 10.4 7.9235  10.218 8.333  9.9255 8.6255  L 7.15 11.401  L 4.3745 8.6255  C 4.082 8.3265  3.9 7.9235  3.9 7.475  C 3.9 6.578  4.628 5.85  5.525 5.85  C 5.9735 5.85  6.383 6.032  6.6755 6.331  L 7.15 6.799  L 7.6245 6.3245  C 7.917 6.032  8.3265 5.85  8.775 5.85  C 9.672 5.85  10.4 6.578  10.4 7.475  Z " fill-rule="nonzero" fill="#ffffff" stroke="none" transform="matrix(1 0 0 1 1 1 )" />
  </g>
</svg>