<?xml version="1.0" encoding="utf-8"?>
<svg version="1.1" xmlns:xlink="http://www.w3.org/1999/xlink" width="14px" height="14px" xmlns="http://www.w3.org/2000/svg">
  <g transform="matrix(1 0 0 1 -1 -1 )">
    <path d="M 14 8.33333333333333  C 14 7.41333333333333  13.2533333333333 6.66666666666667  12.3333333333333 6.66666666666667  L 11.3333333333333 6.66666666666667  L 11.3333333333333 4  C 11.3333333333333 3.26666666666667  10.7333333333333 2.66666666666667  10 2.66666666666667  L 7.33333333333333 2.66666666666667  L 7.33333333333333 1.66666666666667  C 7.33333333333333 0.746666666666667  6.58666666666667 0  5.66666666666667 0  C 4.74666666666667 0  4 0.746666666666667  4 1.66666666666667  L 4 2.66666666666667  L 1.33333333333333 2.66666666666667  C 0.6 2.66666666666667  0.00666666666666652 3.26666666666667  0.00666666666666652 4  L 0.00666666666666652 6.53333333333333  L 1 6.53333333333333  C 1.99333333333333 6.53333333333333  2.8 7.34  2.8 8.33333333333333  C 2.8 9.32666666666667  1.99333333333333 10.1333333333333  1 10.1333333333333  L 0 10.1333333333333  L 0 12.6666666666667  C 0 13.4  0.6 14  1.33333333333333 14  L 3.86666666666667 14  L 3.86666666666667 13  C 3.86666666666667 12.0066666666667  4.67333333333333 11.2  5.66666666666667 11.2  C 6.66 11.2  7.46666666666667 12.0066666666667  7.46666666666667 13  L 7.46666666666667 14  L 10 14  C 10.7333333333333 14  11.3333333333333 13.4  11.3333333333333 12.6666666666667  L 11.3333333333333 10  L 12.3333333333333 10  C 13.2533333333333 10  14 9.25333333333333  14 8.33333333333333  Z " fill-rule="nonzero" fill="#ffffff" stroke="none" transform="matrix(1 0 0 1 1 1 )" />
  </g>
</svg>