<?xml version="1.0" encoding="utf-8"?>
<svg version="1.1" xmlns:xlink="http://www.w3.org/1999/xlink" width="7px" height="10px" xmlns="http://www.w3.org/2000/svg">
  <g transform="matrix(1 0 0 1 -1156 -621 )">
    <path d="M 4.85425000000009 5.85399999999981  C 4.9477249777625 5.76004566337724  4.99639189671632 5.63851713671829  5.00025000000005 5.51585026077191  C 5.00025000000005 7.51055290776594  5.00025000000005 9.5  5.00025000000005 9.5  C 5.00025000000005 9.77599999999984  5.2242500000001 10  5.50025000000005 10  C 5.77625 10  6.00025000000005 9.77599999999984  6.00025000000005 9.5  C 6.00025000000005 9.5  6.00025000000005 1.5  6.00025000000005 1.5  C 6.00025000000005 1.22400000000016  5.77625 1  5.50025000000005 1  C 5.2242500000001 1  5.00025000000005 1.22400000000016  5.00025000000005 1.5  C 5.00025000000005 1.5  5.00025000000005 3.48942703487273  5.00024980795251 5.48411957976987  C 4.99638392573638 5.36146295949584  4.9477173230855 5.23994664269139  4.85425000000009 5.14600000000019  C 4.85425000000009 5.14600000000019  0.854250000000093 1.14599999999973  0.854250000000093 1.14599999999973  C 0.658250000000066 0.951000000000022  0.342250000000149 0.951000000000022  0.146250000000123 1.14599999999973  C -0.0487499999999272 1.3420000000001  -0.0487499999999272 1.6579999999999  0.146250000000123 1.85399999999981  C 0.146250000000123 1.85399999999981  3.79325000000006 5.5  3.79325000000006 5.5  C 3.79325000000006 5.5  0.146250000000123 9.14600000000019  0.146250000000123 9.14600000000019  C -0.0487499999999272 9.3420000000001  -0.0487499999999272 9.6579999999999  0.146250000000123 9.85399999999981  C 0.244250000000079 9.95100000000002  0.372250000000122 10  0.500250000000165 10  C 0.628250000000094 10  0.756250000000136 9.95100000000002  0.854250000000093 9.85399999999981  C 0.854250000000093 9.85399999999981  4.85425000000009 5.85399999999981  4.85425000000009 5.85399999999981  Z " fill-rule="nonzero" fill="#bfbfbf" stroke="none" transform="matrix(1 0 0 1 1156 621 )" />
  </g>
</svg>