<?xml version="1.0" encoding="utf-8"?>
<svg version="1.1" xmlns:xlink="http://www.w3.org/1999/xlink" width="14px" height="14px" xmlns="http://www.w3.org/2000/svg">
  <g transform="matrix(1 0 0 1 -793 -132 )">
    <path d="M 0.521111111111079 7.00388888888889  C 0.521111111111079 10.5823822222222  3.42539555555548 13.4866666666667  7.0038888888888 13.4866666666667  C 10.5823822222222 13.4866666666667  13.4866666666666 10.5823822222222  13.4866666666666 7.00388888888889  C 13.4866666666666 3.42539555555557  10.5823822222222 0.521111111111124  7.0038888888888 0.521111111111124  C 3.42539555555548 0.521111111111124  0.521111111111079 3.42539555555557  0.521111111111079 7.00388888888889  Z M 6.35561111111114 10.2452777777777  L 6.35561111111114 8.94872222222221  L 7.65216666666672 8.94872222222221  L 7.65216666666672 10.2452777777777  L 6.35561111111114 10.2452777777777  Z M 6.35561111111114 3.76249999999998  L 7.65216666666672 3.76249999999998  L 7.65216666666672 7.65216666666663  L 6.35561111111114 7.65216666666663  L 6.35561111111114 3.76249999999998  Z " fill-rule="nonzero" fill="#e94f4f" stroke="none" transform="matrix(1 0 0 1 793 132 )" />
  </g>
</svg>