<?xml version="1.0" encoding="utf-8"?>
<svg version="1.1" xmlns:xlink="http://www.w3.org/1999/xlink" width="12px" height="12px" xmlns="http://www.w3.org/2000/svg">
  <g transform="matrix(1 0 0 1 -1163 -64 )">
    <path d="M 10.666666666667 11.66  L 11.6599999999999 10.6666666666667  L 8.33333333333303 7.33333333333334  L 7.80666666666639 7.33333333333334  C 7.80666666666639 7.33333333333334  7.61999999999989 7.15333333333334  7.61999999999989 7.15333333333334  C 8.27333333333354 6.39333333333332  8.66666666666697 5.40666666666667  8.66666666666697 4.33333333333334  C 8.66666666666697 1.94  6.72666666666646 0  4.33333333333303 0  C 1.9399999999996 0  0 1.94  0 4.33333333333334  C 0 6.72666666666666  1.9399999999996 8.66666666666666  4.33333333333303 8.66666666666666  C 5.40666666666675 8.66666666666666  6.39333333333343 8.27333333333334  7.15333333333365 7.62  C 7.15333333333365 7.62  7.33333333333303 7.80666666666667  7.33333333333303 7.80666666666667  L 7.33333333333303 8.33333333333334  L 10.666666666667 11.66  Z M 4.33333333333303 1.33333333333334  C 5.99333333333288 1.33333333333334  7.33333333333303 2.67333333333335  7.33333333333303 4.33333333333334  C 7.33333333333303 5.99333333333334  5.99333333333288 7.33333333333334  4.33333333333303 7.33333333333334  C 2.67333333333318 7.33333333333334  1.33333333333303 5.99333333333334  1.33333333333303 4.33333333333334  C 1.33333333333303 2.67333333333335  2.67333333333318 1.33333333333334  4.33333333333303 1.33333333333334  Z " fill-rule="nonzero" fill="#bfbfbf" stroke="none" transform="matrix(1 0 0 1 1163 64 )" />
  </g>
</svg>