<?xml version="1.0" encoding="utf-8"?>
<svg version="1.1" xmlns:xlink="http://www.w3.org/1999/xlink" width="6px" height="10px" xmlns="http://www.w3.org/2000/svg">
  <g transform="matrix(1 0 0 1 -724 -621 )">
    <path d="M 4.499800019998 9  C 4.37181281871813 9  4.24382561743826 8.9510013610733  4.14583541645836 8.85400405544291  C 4.14583541645836 8.85400405544291  0.146235376462354 4.85411516346768  0.146235376462354 4.85411516346768  C -0.0487451254874513 4.65812060776089  -0.0487451254874513 4.34212938529485  0.146235376462354 4.14613482958807  C 0.146235376462354 4.14613482958807  4.14583541645836 0.146245937612843  4.14583541645836 0.146245937612843  C 4.34181581841816 -0.0487486458709481  4.65778422157784 -0.0487486458709481  4.85376462353765 0.146245937612843  C 5.04874512548745 0.34224049331963  5.04874512548745 0.658231715785672  4.85376462353765 0.854226271492457  C 4.85376462353765 0.854226271492457  1.20712928707129 4.50012499652787  1.20712928707129 4.50012499652787  C 1.20712928707129 4.50012499652787  4.85376462353765 8.14602372156329  4.85376462353765 8.14602372156329  C 5.04874512548745 8.34201827727008  5.04874512548745 8.65800949973612  4.85376462353765 8.85400405544291  C 4.75577442255775 8.9510013610733  4.62778722127787 9  4.499800019998 9  Z " fill-rule="nonzero" fill="#bfbfbf" stroke="none" transform="matrix(1 0 0 1 724 621 )" />
  </g>
</svg>