<?xml version="1.0" encoding="utf-8"?>
<svg version="1.1" xmlns:xlink="http://www.w3.org/1999/xlink" width="12px" height="10px" xmlns="http://www.w3.org/2000/svg">
  <g transform="matrix(1 0 0 1 -1000 -10 )">
    <path d="M 9.17836100696309 8.23295628248241  C 9.17836100696309 8.23295628248241  11.0583824317087 10  11.0583824317087 10  L 12 9.1164781412412  C 12 9.1164781412412  10.1071237279058 7.33720574747781  10.1071237279058 7.33720574747781  C 10.4576504638952 6.83516735909529  10.6453932812485 6.24622019183158  10.6470273165506 5.643534087435  C 10.6626043467239 4.19131524061481  9.63503277249913 2.91620333314154  8.15678037323426 2.55339067589961  C 6.67852797396938 2.19057801865762  5.130733228336 2.83360876168035  4.40580941327687 4.11173014580845  C 3.68088559821786 5.38985152993661  3.96574014588873 6.97352494583208  5.09613423776636 7.94965052242122  C 6.22652832964411 8.92577609901036  7.91101195036458 9.04267894137075  9.17836100696309 8.23295628248241  Z M 9.75040171397961 1.42769795169676  L 9.75040171397961 0  L 0 0  L 0 1.42769795169676  L 9.75040171397961 1.42769795169676  Z M 0 3.56465912564965  L 0 4.99235707734636  L 2.99839314408143 4.99235707734636  L 2.99839314408143 3.56465912564965  L 0 3.56465912564965  Z M 0 8.5600733720575  L 2.99839314408143 8.5600733720575  L 2.99839314408143 7.13237542036075  L 0 7.13237542036075  L 0 8.5600733720575  Z M 9.31655061596143 5.63741974931213  C 9.30947205813425 6.67967684960541  8.41647143351645 7.5196029114245  7.32083556507769 7.5145215530419  C 6.23407140105394 7.50273448454146  5.3619321811467 6.65717985009206  5.37016915494678 5.6233154408726  C 5.37840612874675 4.5894510316532  6.26391774033232 3.75656888117044  7.35074486702706 3.76045318509966  C 8.43757199372192 3.76433748902889  9.31647998304311 4.60352564883027  9.31655061596143 5.63741974931213  Z " fill-rule="nonzero" fill="#029af2" stroke="none" transform="matrix(1 0 0 1 1000 10 )" />
  </g>
</svg>