<?xml version="1.0" encoding="iso-8859-1"?>
<!-- Generator: Adobe Illustrator 19.0.0, SVG Export Plug-In . SVG Version: 6.00 Build 0)  -->
<svg version="1.1" id="Layer_1" xmlns="http://www.w3.org/2000/svg" xmlns:xlink="http://www.w3.org/1999/xlink" x="0px" y="0px"
	 viewBox="0 0 496 496" style="enable-background:new 0 0 496 496;" xml:space="preserve">
<path style="fill:#0EE0B8;" d="M404,0H92C78.4,0,64,12.8,64,26.4v320L222.4,496H404c13.6,0,28-12.8,28-26.4V26.4
	C432,12.8,417.6,0,404,0z"/>
<path style="fill:#1080DD;" d="M404,0H92C78.4,0,64,12.8,64,26.4v320L222.4,496H404c13.6,0,28-12.8,28-26.4V26.4
	C432,12.8,417.6,0,404,0z"/>
<path style="fill:#0070CC;" d="M432,384V26.4C432,12.8,417.6,0,404,0H92C78.4,0,66.4,11.2,66.4,24"/>
<path style="fill:#0667B7;" d="M432,384V26.4C432,12.8,417.6,0,404,0H208"/>
<path style="fill:#0070CC;" d="M200,352v119.2c0,1.6,1.6,3.2,1.6,4.8l19.2,18.4c1.6,0,3.2,1.6,4.8,1.6h125.6l-148-144H200z"/>
<path style="fill:#0667B7;" d="M200,351.2v120c0,1.6,1.6,3.2,1.6,4.8l19.2,18.4c1.6,0,3.2,1.6,4.8,1.6h64l-72.8-120.8L200,351.2z"/>
<path style="fill:#FFFFFF;" d="M222.4,496h1.6V370.4c0-13.6-12-26.4-25.6-26.4L64,345.6L222.4,496z"/>
<polyline style="fill:#D2F3FF;" points="64,345.6 222.4,496 224,496 224,368 "/>
<path style="fill:#3DB8FC;" d="M80,345.6L80,345.6V26.4C80,12.8,89.6,0,102.4,0H92C78.4,0,64,12.8,64,26.4v320L80,345.6L80,345.6z"
	/>
<path style="fill:#0667B7;" d="M349.6,161.6L320,132c-6.4-6.4-15.2-10.4-24.8-10.4c-9.6,0-17.6,4-24.8,10.4L140,261.6
	c-4.8,4.8-4.8,12,0,16c4.8,4.8,12,4.8,16,0l130.4-130.4c4-4,12-4,16,0l29.6,29.6c2.4,2.4,3.2,4.8,3.2,8s-1.6,5.6-3.2,8l-44,45.6
	c0,0-0.8,0-0.8,0.8l-74.4,74.4c-0.8,0.8-1.6,0.8-2.4,0l-16.8-16.8c-0.8-0.8-0.8-1.6,0-2.4l49.6-49.6c4.8-4.8,4.8-12,0-16
	c-4.8-4.8-12-4.8-16,0l-49.6,49.6c-9.6,9.6-9.6,25.6,0,35.2l16.8,16.8c4.8,4.8,11.2,7.2,17.6,7.2s12.8-2.4,17.6-7.2l32.8-32.8
	c0,0,0.8,0,0.8-0.8l86.4-86.4c6.4-6.4,10.4-15.2,10.4-24.8C359.2,176.8,356,168,349.6,161.6z"/>
<path style="fill:#FFFFFF;" d="M349.6,139.2L320,109.6c-6.4-6.4-15.2-10.4-24.8-10.4c-9.6,0-17.6,4-24.8,10.4L140,240
	c-4.8,4.8-4.8,12,0,16s12,4.8,16,0l130.4-130.4c4-4,12-4,16,0l29.6,29.6c2.4,2.4,3.2,4.8,3.2,8s-1.6,5.6-3.2,8l-44,45.6
	c0,0-0.8,0-0.8,0.8L212.8,292c-0.8,0.8-1.6,0.8-2.4,0l-16.8-16.8c-0.8-0.8-0.8-1.6,0-2.4l49.6-49.6c4.8-4.8,4.8-12,0-16
	c-4.8-4.8-12-4.8-16,0L177.6,256c-9.6,9.6-9.6,25.6,0,35.2l16.8,16.8c4.8,4.8,11.2,7.2,17.6,7.2s12.8-2.4,17.6-7.2l32.8-32.8
	c0,0,0.8,0,0.8-0.8l86.4-86.4c6.4-6.4,10.4-15.2,10.4-24.8C359.2,154.4,356,145.6,349.6,139.2z"/>
<g>
</g>
<g>
</g>
<g>
</g>
<g>
</g>
<g>
</g>
<g>
</g>
<g>
</g>
<g>
</g>
<g>
</g>
<g>
</g>
<g>
</g>
<g>
</g>
<g>
</g>
<g>
</g>
<g>
</g>
</svg>
