<?xml version="1.0" encoding="utf-8"?>
<!-- Generator: Adobe Illustrator 24.0.1, SVG Export Plug-In . SVG Version: 6.00 Build 0)  -->
<svg version="1.1" id="图层_1" xmlns="http://www.w3.org/2000/svg" xmlns:xlink="http://www.w3.org/1999/xlink" x="0px" y="0px"
	 viewBox="0 0 100 27" style="enable-background:new 0 0 100 27;" xml:space="preserve">
<style type="text/css">
	.st0{fill:#333333;}
	.st1{fill:#1993FF;}
</style>
<g>
	<g>
		<path class="st0" d="M10.3,0.5H2.9l0,0H0.7C0.3,0.5,0,0.8,0,1.2v24.6c0,0.4,0.3,0.7,0.7,0.7h1.4c0.4,0,0.7-0.3,0.7-0.7V15h7.4
			c3.9,0,7.1-3.2,7.1-7.2S14.2,0.5,10.3,0.5z M10.2,12.1H3.6c-0.4,0-0.7-0.3-0.7-0.7V4.1c0-0.4,0.3-0.7,0.7-0.7h6.6
			c2.3,0,4.2,1.9,4.2,4.3S12.6,12.1,10.2,12.1z"/>
		<path class="st0" d="M36.2,7.7c-0.8,0-1.4,0.6-1.4,1.4v1.2c-1.7-1.6-4-2.6-6.5-2.6c-5.2,0-9.4,4.2-9.4,9.4s4.2,9.4,9.4,9.4
			c2.5,0,4.8-1,6.5-2.6v1.9c0,0.4,0.3,0.7,0.7,0.7h1.4c0.4,0,0.7-0.3,0.7-0.7V9.2C37.6,8.4,37,7.7,36.2,7.7z M28.2,23.6
			c-3.6,0-6.5-2.9-6.5-6.5s2.9-6.5,6.5-6.5s6.5,2.9,6.5,6.5S31.8,23.6,28.2,23.6z"/>
		<path class="st0" d="M43.4,0.5c-0.8,0-1.4,0.6-1.4,1.4v23.9c0,0.4,0.3,0.7,0.7,0.7h1.4c0.4,0,0.7-0.3,0.7-0.7V1.9
			C44.8,1.1,44.2,0.5,43.4,0.5z"/>
		<path class="st0" d="M76.7,7.7h-1.4V1.9c0-0.8-0.6-1.4-1.4-1.4s-1.4,0.6-1.4,1.4v5.8h-1.4c-0.8,0-1.4,0.6-1.4,1.4s0.6,1.4,1.4,1.4
			h1.4v15.2c0,0.4,0.3,0.7,0.7,0.7h1.4c0.4,0,0.7-0.3,0.7-0.7V10.6h1.4c0.8,0,1.4-0.6,1.4-1.4C78.1,8.4,77.5,7.7,76.7,7.7z"/>
		<path class="st0" d="M58.6,7.7c-5.1,0-9.4,4.2-9.5,9.3c-0.1,5.3,4.2,9.5,9.4,9.5c3.9,0,7.3-2.4,8.7-5.8h-3c-0.2,0-0.4,0.1-0.6,0.3
			c-1.2,1.6-3,2.6-5.1,2.6c-3.3,0-6.1-2.5-6.4-5.8h2.6H65h2.9l0,0C68.4,12.3,64,7.8,58.6,7.7z M52.5,15c0.9-2.5,3.3-4.3,6.1-4.3
			s5.2,1.8,6.1,4.3H52.5z"/>
	</g>
	<path class="st1" d="M86.5,11L81,2.8c-0.7-1,0-2.3,1.2-2.3l0,0c0.5,0,1,0.2,1.2,0.7l4.8,7.2L86.5,11z"/>
	<path class="st0" d="M99.9,25.4l-8-11.9l7.3-10.8c0.6-0.9,0-2.2-1.2-2.2c-0.5,0-0.9,0.2-1.2,0.6L80.2,25.4c-0.3,0.5,0,1.1,0.6,1.1
		h1.9c0.2,0,0.5-0.1,0.6-0.3l6.8-10l6.7,10c0.1,0.2,0.4,0.3,0.6,0.3h1.9C99.9,26.5,100.2,25.9,99.9,25.4z"/>
</g>
</svg>
