<svg id="图层_1" data-name="图层 1" xmlns="http://www.w3.org/2000/svg" viewBox="0 0 120 50"><defs><style>.cls-1{fill:#fff;}.cls-2{fill:#0093ff;}</style></defs><path class="cls-1" d="M43.31,20.75a6.63,6.63,0,1,0,6.12,9.17l.07-.17H47l0,.06A4.34,4.34,0,0,1,39,28H49.9v-.12c0-.16,0-.33,0-.5A6.63,6.63,0,0,0,43.31,20.75Zm4,5H39.27a4.35,4.35,0,0,1,8.09,0Z"/><rect class="cls-1" x="3.69" y="16" width="2.25" height="18"/><path class="cls-1" d="M23.31,20.75a6.63,6.63,0,1,0,6.63,6.63A6.63,6.63,0,0,0,23.31,20.75Zm0,11a4.38,4.38,0,1,1,4.38-4.37A4.37,4.37,0,0,1,23.31,31.75Z"/><rect class="cls-1" x="27.69" y="20.75" width="2.25" height="13.25"/><rect class="cls-1" x="32.69" y="16" width="2.25" height="18"/><polygon class="cls-1" points="72.53 15.73 59.83 33.8 59.69 34 62.44 34 75.26 15.76 72.53 15.73"/><polygon class="cls-2" points="66.11 20.97 62.46 15.78 62.42 15.73 59.69 15.76 64.73 22.93 66.11 20.97"/><polygon class="cls-1" points="67.48 22.93 66.11 24.88 72.48 33.95 72.51 34 75.26 34 67.48 22.93"/><path class="cls-1" d="M56.71,23.25V21H53.94V16H51.69V27.48h0v.12a6.63,6.63,0,0,0,5,6.35V31.63a4.35,4.35,0,0,1-2.77-4v-.12h0V23.25Z"/><path class="cls-1" d="M10.34,27.25H4.81V25h5.53a3.38,3.38,0,1,0,0-6.75H4.81V16h5.53a5.63,5.63,0,1,1,0,11.25Z"/><path class="cls-1" d="M110.31,20.75a6.63,6.63,0,1,0,6.63,6.63A6.63,6.63,0,0,0,110.31,20.75Zm4.38,6.63A4.38,4.38,0,1,1,110.31,23,4.38,4.38,0,0,1,114.69,27.38Z"/><rect class="cls-1" x="96.69" y="21" width="2.25" height="13"/><path class="cls-1" d="M103.24,21a6.65,6.65,0,0,0-6.55,6.62v.09h0v0H98.9v0h0V27.5a4.29,4.29,0,0,1,4.31-4.25h.12V21Z"/><rect class="cls-1" x="82.69" y="16" width="2.25" height="18"/><path class="cls-1" d="M89.34,27.25H83.81V25h5.53a3.38,3.38,0,1,0,0-6.75H83.81V16h5.53a5.63,5.63,0,1,1,0,11.25Z"/></svg>